<svg width="18" height="20" viewBox="0 0 18 20" fill="none" xmlns="http://www.w3.org/2000/svg">
<path fill-rule="evenodd" clip-rule="evenodd" d="M9.68971 1.74577C13.2328 2.08444 15.9944 4.9936 15.9944 8.47442V13.1595C15.9944 13.3219 16.0285 13.5139 16.1714 13.5937L17.4057 14.2911C18.2987 14.7948 18.2457 17.03 16.8326 17.03H1.1679C-0.244321 17.03 -0.300022 14.7964 0.594741 14.2911C0.817534 14.1652 1.86143 13.632 1.94229 13.473C1.98541 13.3888 2.00517 13.2785 2.00517 13.1595V8.47439C2.00517 4.9938 4.7677 2.08545 8.30986 1.74574V0.658481C8.30986 -0.219494 9.68975 -0.219494 9.68975 0.658481L9.68971 1.74577ZM7.65581 20C6.74757 20 6.74757 18.6661 7.65581 18.6661H10.3438C11.2521 18.6661 11.2521 20 10.3438 20H7.65581ZM12.9642 4.641C9.40136 1.19776 3.38415 3.70832 3.38415 8.4733V13.1584C3.38415 14.4941 2.43009 14.7963 1.30804 15.4303C1.46705 15.4555 1.34577 15.3643 1.38081 15.6951H16.6179C16.6521 15.3651 16.5317 15.4555 16.6907 15.4303C15.5696 14.7963 14.6146 14.4941 14.6146 13.1584V8.47419C14.6146 6.98225 13.983 5.62498 12.9642 4.641ZM16.7104 15.4425L16.6538 15.4373C16.6996 15.446 16.758 15.4694 16.7104 15.4425ZM1.28902 15.4425C1.24141 15.4694 1.2989 15.4468 1.34472 15.4373L1.28902 15.4425Z" fill="white"/>
</svg>
